<svg width="184" height="38" viewBox="0 0 184 38" fill="none" xmlns="http://www.w3.org/2000/svg">
<rect x="37.0312" y="37.5195" width="37.0313" height="37.0313" rx="18.5156" transform="rotate(-180 37.0312 37.5195)" fill="url(#paint0_linear_7635_6643)"/>
<rect width="26.1851" height="26.1851" transform="translate(37.0312 0.484375) rotate(45)" fill="url(#paint1_linear_7635_6643)"/>
<path d="M70.5545 28.5H68.2072L74.9964 10.0102H77.3076L84.0969 28.5H81.7495L76.2242 12.9353H76.0798L70.5545 28.5ZM71.4212 21.2774H80.8828V23.2636H71.4212V21.2774ZM88.4214 20.1579V28.5H86.2907V14.6326H88.3492V16.7994H88.5297C88.8548 16.0952 89.3483 15.5294 90.0104 15.1021C90.6724 14.6687 91.5271 14.4521 92.5744 14.4521C93.5133 14.4521 94.3349 14.6447 95.0391 15.0299C95.7433 15.409 96.291 15.9869 96.6822 16.7633C97.0735 17.5337 97.2691 18.5087 97.2691 19.6884V28.5H95.1384V19.8329C95.1384 18.7435 94.8555 17.8948 94.2898 17.2869C93.724 16.673 92.9476 16.366 91.9605 16.366C91.2803 16.366 90.6724 16.5135 90.1368 16.8084C89.6071 17.1033 89.1888 17.5337 88.8818 18.0995C88.5749 18.6652 88.4214 19.3514 88.4214 20.1579ZM100.765 28.5V14.6326H102.896V28.5H100.765ZM101.849 12.3214C101.433 12.3214 101.075 12.1799 100.774 11.8971C100.479 11.6142 100.332 11.2741 100.332 10.8769C100.332 10.4796 100.479 10.1396 100.774 9.85668C101.075 9.57379 101.433 9.43235 101.849 9.43235C102.264 9.43235 102.619 9.57379 102.914 9.85668C103.215 10.1396 103.365 10.4796 103.365 10.8769C103.365 11.2741 103.215 11.6142 102.914 11.8971C102.619 12.1799 102.264 12.3214 101.849 12.3214ZM106.401 28.5V14.6326H108.46V16.7994H108.64C108.929 16.0591 109.396 15.4843 110.04 15.075C110.684 14.6597 111.457 14.4521 112.36 14.4521C113.275 14.4521 114.036 14.6597 114.644 15.075C115.258 15.4843 115.736 16.0591 116.079 16.7994H116.224C116.579 16.0832 117.112 15.5144 117.822 15.0931C118.532 14.6657 119.384 14.4521 120.377 14.4521C121.617 14.4521 122.631 14.8403 123.419 15.6167C124.208 16.3871 124.602 17.5879 124.602 19.219V28.5H122.471V19.219C122.471 18.1958 122.192 17.4645 121.632 17.0251C121.072 16.5857 120.413 16.366 119.655 16.366C118.68 16.366 117.924 16.661 117.389 17.2508C116.853 17.8346 116.585 18.575 116.585 19.4718V28.5H114.418V19.0023C114.418 18.2138 114.162 17.5788 113.651 17.0973C113.139 16.6098 112.48 16.366 111.674 16.366C111.12 16.366 110.602 16.5135 110.121 16.8084C109.645 17.1033 109.26 17.5126 108.965 18.0363C108.676 18.5539 108.532 19.1528 108.532 19.8329V28.5H106.401ZM132.181 28.825C131.303 28.825 130.505 28.6595 129.789 28.3285C129.073 27.9914 128.504 27.5069 128.082 26.8749C127.661 26.2369 127.45 25.4665 127.45 24.5637C127.45 23.7692 127.607 23.1252 127.92 22.6316C128.233 22.1321 128.651 21.7409 129.175 21.458C129.699 21.1751 130.276 20.9644 130.908 20.826C131.546 20.6815 132.187 20.5672 132.831 20.4829C133.674 20.3746 134.357 20.2933 134.881 20.2392C135.41 20.179 135.796 20.0797 136.036 19.9412C136.283 19.8028 136.407 19.562 136.407 19.219V19.1467C136.407 18.256 136.163 17.5638 135.675 17.0702C135.194 16.5767 134.462 16.3299 133.481 16.3299C132.464 16.3299 131.667 16.5526 131.089 16.998C130.511 17.4434 130.105 17.9189 129.87 18.4245L127.848 17.7022C128.209 16.8596 128.69 16.2035 129.292 15.7341C129.9 15.2586 130.562 14.9275 131.278 14.741C132.001 14.5484 132.711 14.4521 133.409 14.4521C133.855 14.4521 134.366 14.5062 134.944 14.6146C135.528 14.7169 136.091 14.9305 136.632 15.2556C137.18 15.5806 137.634 16.0711 137.995 16.7272C138.357 17.3832 138.537 18.262 138.537 19.3634V28.5H136.407V26.6221H136.298C136.154 26.9231 135.913 27.2451 135.576 27.5881C135.239 27.9312 134.79 28.2231 134.231 28.4639C133.671 28.7046 132.988 28.825 132.181 28.825ZM132.506 26.911C133.349 26.911 134.059 26.7455 134.637 26.4145C135.221 26.0834 135.66 25.6561 135.955 25.1325C136.256 24.6088 136.407 24.0581 136.407 23.4803V21.5302C136.316 21.6385 136.118 21.7378 135.811 21.8281C135.51 21.9124 135.161 21.9876 134.763 22.0538C134.372 22.114 133.99 22.1682 133.617 22.2163C133.25 22.2585 132.952 22.2946 132.723 22.3247C132.169 22.3969 131.652 22.5143 131.17 22.6768C130.695 22.8333 130.309 23.071 130.015 23.39C129.726 23.703 129.581 24.1303 129.581 24.672C129.581 25.4123 129.855 25.9721 130.403 26.3513C130.956 26.7244 131.658 26.911 132.506 26.911ZM148.06 14.6326V16.4383H140.873V14.6326H148.06ZM142.968 11.3102H145.098V24.5276C145.098 25.1295 145.186 25.5809 145.36 25.8818C145.541 26.1767 145.77 26.3754 146.046 26.4777C146.329 26.574 146.627 26.6221 146.94 26.6221C147.175 26.6221 147.368 26.6101 147.518 26.586C147.668 26.5559 147.789 26.5318 147.879 26.5138L148.313 28.4278C148.168 28.4819 147.966 28.5361 147.708 28.5903C147.449 28.6505 147.121 28.6806 146.724 28.6806C146.122 28.6806 145.532 28.5512 144.954 28.2924C144.382 28.0335 143.907 27.6393 143.528 27.1097C143.154 26.58 142.968 25.9119 142.968 25.1054V11.3102ZM156.533 28.7889C155.197 28.7889 154.044 28.494 153.075 27.9041C152.112 27.3083 151.369 26.4777 150.845 25.4123C150.327 24.341 150.069 23.0951 150.069 21.6746C150.069 20.2542 150.327 19.0023 150.845 17.9189C151.369 16.8295 152.097 15.9808 153.03 15.3729C153.969 14.759 155.064 14.4521 156.316 14.4521C157.038 14.4521 157.752 14.5724 158.456 14.8132C159.16 15.0539 159.801 15.4452 160.379 15.9869C160.957 16.5225 161.417 17.2328 161.76 18.1175C162.103 19.0023 162.275 20.0917 162.275 21.3857V22.2886H151.585V20.4468H160.108C160.108 19.6644 159.951 18.9662 159.638 18.3523C159.331 17.7383 158.892 17.2538 158.32 16.8987C157.755 16.5436 157.086 16.366 156.316 16.366C155.467 16.366 154.733 16.5767 154.113 16.998C153.499 17.4133 153.027 17.955 152.696 18.6231C152.365 19.2912 152.199 20.0074 152.199 20.7718V21.9997C152.199 23.0469 152.38 23.9347 152.741 24.663C153.108 25.3853 153.617 25.936 154.267 26.3152C154.917 26.6883 155.672 26.8749 156.533 26.8749C157.092 26.8749 157.598 26.7967 158.049 26.6402C158.507 26.4777 158.901 26.2369 159.232 25.9179C159.563 25.5929 159.819 25.1896 160 24.7081L162.058 25.2859C161.841 25.9841 161.477 26.598 160.966 27.1277C160.454 27.6513 159.822 28.0606 159.07 28.3555C158.317 28.6445 157.472 28.7889 156.533 28.7889ZM167.249 10.0102V28.5H165.119V10.0102H167.249ZM172.127 33.7003C171.766 33.7003 171.444 33.6702 171.161 33.61C170.878 33.5558 170.682 33.5016 170.574 33.4475L171.116 31.5696C171.633 31.702 172.091 31.7502 172.488 31.7141C172.885 31.6779 173.237 31.5004 173.544 31.1814C173.857 30.8684 174.143 30.3598 174.402 29.6556L174.799 28.5722L169.671 14.6326H171.982L175.81 25.6832H175.955L179.783 14.6326H182.094L176.208 30.5223C175.943 31.2386 175.615 31.8314 175.223 32.3009C174.832 32.7764 174.378 33.1285 173.86 33.3572C173.349 33.5859 172.771 33.7003 172.127 33.7003Z" fill="#F7F6F7"/>
<defs>
<linearGradient id="paint0_linear_7635_6643" x1="55.5469" y1="37.5195" x2="55.5469" y2="74.5508" gradientUnits="userSpaceOnUse">
<stop stop-color="#E2A5FF"/>
<stop offset="1" stop-color="#E2A5FF" stop-opacity="0"/>
</linearGradient>
<linearGradient id="paint1_linear_7635_6643" x1="0" y1="0" x2="26.1848" y2="26.1848" gradientUnits="userSpaceOnUse">
<stop stop-color="#E2A5FF"/>
<stop offset="1" stop-color="#E2A5FF" stop-opacity="0"/>
</linearGradient>
</defs>
</svg>
