<svg width="17" height="17" viewBox="0 0 17 17" fill="none" xmlns="http://www.w3.org/2000/svg">
<path d="M13.8538 6.85403L8.85378 11.854C8.80735 11.9005 8.7522 11.9374 8.6915 11.9626C8.63081 11.9877 8.56574 12.0007 8.50003 12.0007C8.43433 12.0007 8.36926 11.9877 8.30856 11.9626C8.24786 11.9374 8.19272 11.9005 8.14628 11.854L3.14628 6.85403C3.05246 6.76021 2.99976 6.63296 2.99976 6.50028C2.99976 6.3676 3.05246 6.24035 3.14628 6.14653C3.2401 6.05271 3.36735 6 3.50003 6C3.63272 6 3.75996 6.05271 3.85378 6.14653L8.50003 10.7934L13.1463 6.14653C13.1927 6.10007 13.2479 6.06322 13.3086 6.03808C13.3693 6.01294 13.4343 6 13.5 6C13.5657 6 13.6308 6.01294 13.6915 6.03808C13.7522 6.06322 13.8073 6.10007 13.8538 6.14653C13.9002 6.19298 13.9371 6.24813 13.9622 6.30883C13.9874 6.36953 14.0003 6.43458 14.0003 6.50028C14.0003 6.56598 13.9874 6.63103 13.9622 6.69173C13.9371 6.75242 13.9002 6.80757 13.8538 6.85403Z" fill="#E2A5FF"/>
</svg>
